<?xml version="1.0" encoding="utf-8"?><svg xmlns="http://www.w3.org/2000/svg" xmlns:xlink="http://www.w3.org/1999/xlink"><symbol viewBox="0 0 451.847 451.847" id="arrow-down" xmlns="http://www.w3.org/2000/svg"><path d="M225.923 354.706c-8.098 0-16.195-3.092-22.369-9.263L9.27 151.157c-12.359-12.359-12.359-32.397 0-44.751 12.354-12.354 32.388-12.354 44.748 0l171.905 171.915 171.906-171.909c12.359-12.354 32.391-12.354 44.744 0 12.365 12.354 12.365 32.392 0 44.751L248.292 345.449c-6.177 6.172-14.274 9.257-22.369 9.257z"/></symbol><symbol viewBox="0 0 16 12" id="arrow_footer" xmlns="http://www.w3.org/2000/svg"><path data-name="Rounded Rectangle 10 copy 9" d="M15.717 6.7l-5.022 5.02a.995.995 0 0 1-1.4-1.41L12.613 7H1a1 1 0 0 1 0-2h11.61L9.291 1.68a.991.991 0 1 1 1.4-1.4l5.022 5.02a.987.987 0 0 1 .004 1.4z" fill-rule="evenodd"/></symbol><symbol viewBox="0 0 60.734 60.733" id="facebook" xmlns="http://www.w3.org/2000/svg"><path d="M57.378.001H3.352A3.352 3.352 0 0 0 0 3.353v54.026a3.353 3.353 0 0 0 3.352 3.354h29.086V37.214h-7.914v-9.167h7.914v-6.76c0-7.843 4.789-12.116 11.787-12.116 3.355 0 6.232.251 7.071.36v8.198l-4.854.002c-3.805 0-4.539 1.809-4.539 4.462v5.851h9.078l-1.187 9.166h-7.892v23.52h15.475a3.355 3.355 0 0 0 3.355-3.351V3.351a3.352 3.352 0 0 0-3.354-3.35z"/></symbol><symbol viewBox="0 0 169.063 169.063" id="instagram" xmlns="http://www.w3.org/2000/svg"><path d="M122.406 0H46.654C20.929 0 0 20.93 0 46.655v75.752c0 25.726 20.929 46.655 46.654 46.655h75.752c25.727 0 46.656-20.93 46.656-46.655V46.655C169.063 20.93 148.133 0 122.406 0zm31.657 122.407c0 17.455-14.201 31.655-31.656 31.655H46.654C29.2 154.063 15 139.862 15 122.407V46.655C15 29.201 29.2 15 46.654 15h75.752c17.455 0 31.656 14.201 31.656 31.655v75.752z"/><path d="M84.531 40.97c-24.021 0-43.563 19.542-43.563 43.563 0 24.02 19.542 43.561 43.563 43.561s43.563-19.541 43.563-43.561c0-24.021-19.542-43.563-43.563-43.563zm0 72.123c-15.749 0-28.563-12.812-28.563-28.561 0-15.75 12.813-28.563 28.563-28.563s28.563 12.813 28.563 28.563c0 15.749-12.814 28.561-28.563 28.561zm45.39-84.842c-2.89 0-5.729 1.17-7.77 3.22a11.053 11.053 0 0 0-3.23 7.78c0 2.891 1.18 5.73 3.23 7.78 2.04 2.04 4.88 3.22 7.77 3.22 2.9 0 5.73-1.18 7.78-3.22 2.05-2.05 3.22-4.89 3.22-7.78 0-2.9-1.17-5.74-3.22-7.78-2.04-2.05-4.88-3.22-7.78-3.22z"/></symbol><symbol viewBox="0 0 129 129" id="left-arrow" xmlns="http://www.w3.org/2000/svg"><path d="M88.6 121.3c.8.8 1.8 1.2 2.9 1.2s2.1-.4 2.9-1.2c1.6-1.6 1.6-4.2 0-5.8l-51-51 51-51c1.6-1.6 1.6-4.2 0-5.8s-4.2-1.6-5.8 0l-54 53.9c-1.6 1.6-1.6 4.2 0 5.8l54 53.9z"/></symbol><symbol viewBox="0 0 203.59 58.16" id="logo" xmlns="http://www.w3.org/2000/svg"><path d="M28.9 8.5V8h3.33v.5zM16.61 48.86l.39-.33 2.15 1.56q-.09.24-.2.47zM54.83 22.7h.51l.84 2.58-.44.26zM29.87 3.76l.07-.16.17-.34H31c.09.16.17.33.25.5z"/><path d="M49.3 58.16a21.2 21.2 0 0 1-3.18-.24 20.44 20.44 0 0 1-10.77-5.19 20.88 20.88 0 0 1-3.7-4.53c-.3-.5-.58-1-.84-1.53l-.25-.52-.25.52c-.25.51-.53 1-.84 1.53a20.87 20.87 0 0 1-3.7 4.53 20.51 20.51 0 0 1-4.9 3.36A20.24 20.24 0 0 1 15 57.92a21.19 21.19 0 0 1-3.18.24.25.25 0 0 1-.24-.19 21.15 21.15 0 0 1-.75-3.09 20.33 20.33 0 0 1 .58-9.1 20.74 20.74 0 0 1 4.21-7.67c.38-.44.78-.87 1.2-1.27l.41-.4-.57-.08c-.57-.08-1.14-.19-1.7-.32A20.68 20.68 0 0 1 7 32.32a20.34 20.34 0 0 1-5.81-7A21 21 0 0 1 0 22.37a.25.25 0 0 1 .08-.3 21.1 21.1 0 0 1 2.74-1.67 20.27 20.27 0 0 1 8.83-2.26h.52a20.66 20.66 0 0 1 2.41.14 20.67 20.67 0 0 1 5.65 1.5c.54.23 1.07.48 1.58.75l.51.27-.1-.57c-.1-.57-.17-1.15-.22-1.73a20.84 20.84 0 0 1 .32-5.84 20.63 20.63 0 0 1 .78-2.83A20.35 20.35 0 0 1 28 2.11 21.19 21.19 0 0 1 30.41.05l.12-.05a.27.27 0 0 1 .18 0 21.15 21.15 0 0 1 2.43 2.06A20.3 20.3 0 0 1 38 9.81a20.52 20.52 0 0 1 1.15 5.75 20.49 20.49 0 0 1 0 2.92c0 .58-.12 1.16-.22 1.73l-.1.57.51-.27c.51-.27 1-.52 1.58-.75A20.7 20.7 0 0 1 49 18.13h.52a20.36 20.36 0 0 1 8.83 2.26A21 21 0 0 1 61 22.07a.25.25 0 0 1 .09.29 21.15 21.15 0 0 1-1.19 2.94 20.35 20.35 0 0 1-5.81 7 20.79 20.79 0 0 1-7.91 3.7c-.57.13-1.15.24-1.71.32l-.57.08.41.4c.41.4.82.83 1.2 1.27a20.61 20.61 0 0 1 4.85 10.61 20.28 20.28 0 0 1 .2 3 20.56 20.56 0 0 1-.27 3.15 21.11 21.11 0 0 1-.75 3.17.26.26 0 0 1-.24.16zM20.64 45.41a11.65 11.65 0 0 0-3.27 1.48 11.85 11.85 0 0 0-4.93 6.76 11.63 11.63 0 0 0-.4 3.61v.35l.34-.09a11.65 11.65 0 0 0 4.85-2.71 11.79 11.79 0 0 0 3.7-7.34 11.61 11.61 0 0 0 .07-1.8v-.35zm19.5.26a11.78 11.78 0 0 0 8.61 11.84l.34.09v-.35a11.77 11.77 0 0 0-8.61-11.84l-.34-.09zm-11-26.2h-.23a5.61 5.61 0 0 0-2.22 1.12l-1.29.89a69.75 69.75 0 0 1-9.4 5.67l-.28.14.17.26A30.11 30.11 0 0 1 19.06 34c1.25 3.36 2.07 5.55 8.18 7.38a.64.64 0 0 1 .22.08.25.25 0 0 1 0 .35A12.16 12.16 0 0 1 24.61 44a12.36 12.36 0 0 1-2.92 1.17l-.23.06v.23A12.13 12.13 0 0 1 20.9 50a12.39 12.39 0 0 1-3.32 5.19 15 15 0 0 1-2.19 1.62 18 18 0 0 1-1.67.8s1.51-.2 1.86-.27 1.47-.34 2.35-.59a19.66 19.66 0 0 0 5.27-2.58 20.22 20.22 0 0 0 5.8-6.24 20 20 0 0 0 1.28-2.5c.21-.45.37-.8.51-1.11.81-1.83 1.12-2.51 3.73-3.21l.9-.21 1-.24c.37-.1.77-.21 1.2-.36a7.48 7.48 0 0 0 .75-.3 3.21 3.21 0 0 0 1.44-1.2 1.52 1.52 0 0 0 .17-.73 3.23 3.23 0 0 0-.79-1.78 2 2 0 0 1-.54-1 2.12 2.12 0 0 1 .41-1.36l.08-.14-.07-.22c-.06-.11-.19-.36-1.61-.45a.26.26 0 0 1-.24-.14.25.25 0 0 1 .11-.33 4.1 4.1 0 0 0 1.07-1.13 1.55 1.55 0 0 0 .25-.59v-.19l-.33-.18a3.44 3.44 0 0 1-.43-.26 1.05 1.05 0 0 1-.48-.65A1.59 1.59 0 0 1 38 28.5a3.94 3.94 0 0 1 .31-.36 2.92 2.92 0 0 0 .49-.63 1.29 1.29 0 0 0 .14-1.17 1.54 1.54 0 0 0-.81-.64 20.55 20.55 0 0 1-2.71-1.44 11.53 11.53 0 0 1-2-1.57 2 2 0 0 1-.53-1 3.42 3.42 0 0 1 0-1.34 2.32 2.32 0 0 0-.32-1.63 6.41 6.41 0 0 0-1.15-1.36l-.59-.58-.22-.22-.2.25a12 12 0 0 0-.73 1q-.25.39-.47.79l-.2.38h.43a3.73 3.73 0 0 1 2.14 1.16.25.25 0 1 1-.34.36 3.08 3.08 0 0 0-2.07-1.03zM33.58 42c-1.4.57-1.73 1.32-2.29 2.57l-.4.87-.06.12.05.12a20.18 20.18 0 0 0 1.19 2.3 20.18 20.18 0 0 0 3.61 4.42 20.11 20.11 0 0 0 2.24 1.79 19.85 19.85 0 0 0 7.61 3.17 14.78 14.78 0 0 0 1.91.27 10.94 10.94 0 0 1-1.72-.79 12.29 12.29 0 0 1-6.09-11.34v-.23l-.23-.06A12.38 12.38 0 0 1 36.49 44a12.15 12.15 0 0 1-2.61-2l-.13-.13zM2 25.66c.17.31.82 1.36 1.29 2.06a19.86 19.86 0 0 0 4.08 4.21 20.31 20.31 0 0 0 5 2.8 20.35 20.35 0 0 0 2.73.84 20.15 20.15 0 0 0 2.77.44.29.29 0 0 1 .22.09.25.25 0 0 1 .06.18c0 .07-.07.14-.2.24A15 15 0 0 0 16 38.45a20.27 20.27 0 0 0-4.1 7.48 19.76 19.76 0 0 0-.66 8.23s.22 1.41.31 1.88a12.93 12.93 0 0 1 .25-1.86c0-.22.1-.45.16-.67a12.27 12.27 0 0 1 8.75-8.64l.23-.06v-.23A12.42 12.42 0 0 1 21 42.2a12.24 12.24 0 0 1 .66-2.67l.07-.19-.15-.13c-1.6-1.35-2.21-3-3-5a29.69 29.69 0 0 0-3.13-6.45l-.13-.2-.22.1a10.27 10.27 0 0 1-3.7.87h-.58a13 13 0 0 1-4-.64 12.23 12.23 0 0 1-3.92-2.1 5.19 5.19 0 0 1-.52-.44C1.74 24.66 1.14 24 1.14 24s.66 1.34.86 1.66zM32.79 3.24A12.3 12.3 0 0 1 31.08 16l-.16.2.18.18.65.63A6.88 6.88 0 0 1 33 18.44a2.76 2.76 0 0 1 .38 2 3 3 0 0 0 0 1.15 1.51 1.51 0 0 0 .4.78 10.93 10.93 0 0 0 1.91 1.5 19.85 19.85 0 0 0 2.64 1.4 2 2 0 0 1 1.06.88 1.74 1.74 0 0 1-.14 1.62 3.24 3.24 0 0 1-.56.74 4 4 0 0 0-.29.32c-.44.6-.27.92-.05 1.08a3.22 3.22 0 0 0 .37.22 1.45 1.45 0 0 1 .51.36 1.49 1.49 0 0 1-.26 1.31 4.34 4.34 0 0 1-.43.55l-.31.35.45.12c.59.16 1 .39 1.09.67a.82.82 0 0 1-.14.72 1.67 1.67 0 0 0-.34 1 1.74 1.74 0 0 0 .43.77 3.69 3.69 0 0 1 .9 2.08 2.16 2.16 0 0 1-.82 1.71l-.14.12.06.18a12.18 12.18 0 0 1 .49 2.25 12.34 12.34 0 0 1 .06 2.26v.23l.23.06a12.27 12.27 0 0 1 6.84 4.67 12.42 12.42 0 0 1 2.07 4.69 10.47 10.47 0 0 1 .22 2l.34-2a20.05 20.05 0 0 0-3.05-13.43 20.45 20.45 0 0 0-1.71-2.28 20 20 0 0 0-2-2 .27.27 0 0 1-.12-.19.25.25 0 0 1 .23-.27 20 20 0 0 0 2.8-.44 20.29 20.29 0 0 0 7.72-3.64 19.78 19.78 0 0 0 5.37-6.27s.57-1.07.81-1.64c-.08.09-.79.89-1.25 1.29l-.52.44a12.32 12.32 0 0 1-7.69 2.69h-.61A12.12 12.12 0 0 1 46 27.6l-.21-.08-.13.19a10.06 10.06 0 0 1-1.77 2 15.72 15.72 0 0 1-3 2 .24.24 0 0 1-.11 0 .25.25 0 0 1-.12-.47 15.2 15.2 0 0 0 2.92-2 9.73 9.73 0 0 0 1.56-1.7l.21-.3-.35-.06a12 12 0 0 0-1.5-.45 11.74 11.74 0 0 0-2.18-.29H41a.25.25 0 0 1-.18-.07.25.25 0 0 1 .17-.42h.37a12.19 12.19 0 0 1 2.27.31 12.44 12.44 0 0 1 1.76.55l.22.09.13-.2a12.13 12.13 0 0 1 2.63-2.94A12.3 12.3 0 0 1 56.09 21h.57l.68.05a9.43 9.43 0 0 1 2 .42s-1.34-.75-1.84-1c-.32-.14-1.49-.66-2.25-.91a20 20 0 0 0-5.78-1H49a20.35 20.35 0 0 0-7.88 1.6 20.12 20.12 0 0 0-2.53 1.29.25.25 0 0 1-.13 0 .25.25 0 0 1-.21-.12.25.25 0 0 1 0-.2 20.28 20.28 0 0 0 .48-5.64A20.33 20.33 0 0 0 37.55 10a19.84 19.84 0 0 0-4.3-7L32 1.75zM22 40a11.69 11.69 0 0 0-.53 2.27 11.93 11.93 0 0 0-.09 2.09v.35l.34-.09a11.77 11.77 0 0 0 2.62-1.07 11.65 11.65 0 0 0 2.06-1.46l.37-.33-.47-.15a16.81 16.81 0 0 1-3.9-1.76l-.3-.2zm16.86.35a7.61 7.61 0 0 1-1 .42 21.2 21.2 0 0 1-2.29.61l-.8.19-.51.13.39.35a11.73 11.73 0 0 0 2.08 1.48 11.88 11.88 0 0 0 2.64 1.08l.34.09v-.35a11.93 11.93 0 0 0-.07-2 11.63 11.63 0 0 0-.38-1.86l-.1-.33zM5 21.51h-.51a11.65 11.65 0 0 0-3.56.73l-.33.13.2.3A11.69 11.69 0 0 0 7 27.38a12.53 12.53 0 0 0 3.82.62h.55a9.84 9.84 0 0 0 3.34-.74l.29-.16-.21-.29A14.7 14.7 0 0 0 12.21 24a11.12 11.12 0 0 0-3.49-1.93A11.78 11.78 0 0 0 5 21.51zm51.06 0a11.86 11.86 0 0 0-7.41 2.62 11.63 11.63 0 0 0-2.42 2.66l-.2.3.33.13a11.66 11.66 0 0 0 3.51.73h.59a11.84 11.84 0 0 0 7.38-2.58 11.62 11.62 0 0 0 2.44-2.68l.19-.3-.33-.12a11.63 11.63 0 0 0-3.56-.73zM5 21a12.26 12.26 0 0 1 3.84.62 11.64 11.64 0 0 1 3.65 2 15.36 15.36 0 0 1 2.82 3l.14.2.22-.11a69.51 69.51 0 0 0 9.43-5.68l1.3-.9a8.63 8.63 0 0 1 1.82-1h.11v-.11a12.49 12.49 0 0 1 .83-1.5 12.87 12.87 0 0 1 .85-1.15l.15-.19-.07-.18c-.23-.26-.44-.53-.64-.8a10.81 10.81 0 0 1-1.37-2.64A12.3 12.3 0 0 1 28 4c.09-.24.18-.48.29-.71l.9-1.65-1.32 1.3a20.25 20.25 0 0 0-1.56 1.86 19.94 19.94 0 0 0-3.5 7.95 20.48 20.48 0 0 0-.36 2.85 20.27 20.27 0 0 0 0 2.85 20 20 0 0 0 .44 2.78.26.26 0 0 1 0 .21.25.25 0 0 1-.34.08 19.93 19.93 0 0 0-2.55-1.3 20.29 20.29 0 0 0-7.88-1.6h-.5a19.74 19.74 0 0 0-8 1.92l-1.88 1a11.14 11.14 0 0 1 2-.43l.73-.11zM30.34.9a11.61 11.61 0 0 0-.88 1.27 11.68 11.68 0 0 0-1.49 4 11.85 11.85 0 0 0 .57 6.21 10.39 10.39 0 0 0 1.31 2.53c.16.22.33.43.51.64l.22.26.21-.27A11.76 11.76 0 0 0 30.78.9l-.22-.28z"/><path d="M49.19 26.76l-.55-.08-.25-.77.4-.39zM30.14 13.25a5.69 5.69 0 0 1-.24-.5h1.32q-.12.25-.25.5zm20.21 11.04l.44-.26.89 2.75h-.51zm2.16-1.05l.47-.16 1 3.17-.47.15zm4.81-.55l.55.08.28.86-.4.39zM29.23 10.88c0-.17-.08-.34-.12-.5H32c0 .17-.07.33-.12.5zm-.13-4.75q0-.25.11-.5h2.71c0 .17.08.33.11.5zm-.66 18.76h-.7a.25.25 0 0 1 0-.5h.45A5 5 0 0 0 30.5 24l.15-.1v-.18a4.32 4.32 0 0 0-.77-1.51.25.25 0 0 1 .08-.32.25.25 0 0 1 .35.05 5 5 0 0 1 .81 1.64l.07.33.32-.13a4.56 4.56 0 0 0 1-.53.25.25 0 0 1 .32.39 7 7 0 0 1-2.4 1 8.43 8.43 0 0 1-2 .23zm-23.05.59l-.44-.26.84-2.58h.51zM3.37 24L3 23.63l.28-.86.55-.08zM13.9 52.76q.1-.24.2-.47L16.47 54l-.38.34zm31.17 1.61l-.38-.37L47 52.33q.11.23.2.47zm-31.84.84q0-.28.09-.55l1.13.82-.23.12-.27.14zM15 50.65l.29-.4 2.69 2-.29.4zm3.65-3.25l.5-.26.66.48q0 .27-.09.55zm-6.33-21.8l.4.4-.25.76-.55.08zm30.95 26.85l-.15-.21 2.69-2 .29.4-2.69 2zm3.94 3.31l-.49-.26 1.09-.8q.05.27.09.55zm-5.02-5.16l-.2-.47 2.17-1.58.38.34zm-.77-2.38q-.05-.27-.09-.55l.69-.5.49.26zM7.11 26.25l1-3.17.23.07.24.08-1 3.16zm2.83.61l-.51-.05.89-2.74.43.28zm72.57 7.92q-.81-1.08-2.09-3-8.86-.88-8.86-3.7a1.2 1.2 0 0 1 .66-1 3.91 3.91 0 0 1 2-.4q3.37 0 6.7 4.28 3.37.34 7.64.34h.37q4.31-2.59 8-5.22 1.51-2.76 2.63-4.56a36.37 36.37 0 0 1 2.69-3.75q3.13-4 6.6-4 .91 0 .91.81 0 2-3.23 5.12A62.88 62.88 0 0 1 98 26.46q-1.62 3.1-2.42 4.51a27.66 27.66 0 0 0 6.8-1.14h.1c.09 0 .13.06.13.18a1.05 1.05 0 0 1-.24.52 38.15 38.15 0 0 1-7.27 1.21 24.79 24.79 0 0 1-3.52 4.87 4.87 4.87 0 0 1-3.42 1.73q-2.76 0-5.22-3.06A70.84 70.84 0 0 1 74.39 39a3.67 3.67 0 0 1-1.16.17q-.66 0-.66-.51a.63.63 0 0 1 .27-.49 1.09 1.09 0 0 1 .71-.22q2.7 0 8.96-3.17zm-9.33-6.83q0 1.92 6.5 2.79-2.63-3.5-5.29-3.5-1.21 0-1.21.71zm10.3 6.36q2.09-1.11 4-2.22h-.13q-2.93 0-5.66-.2 1.31 1.78 1.8 2.42zm5.45-2.22q-2.56 1.45-5.05 2.73 2.26 2.79 4.11 2.79a3.83 3.83 0 0 0 2.74-1.48 25.8 25.8 0 0 0 3-4.28q-2.03.15-4.79.24zM96 27.74q-1.82 1.21-5.66 3.5 2.59-.07 3.8-.17.69-1.07 1.86-3.33zm11.89-13.2q-2.32 0-4.68 3.1A58.09 58.09 0 0 0 99 24.58a59.51 59.51 0 0 0 6.8-5.71q2.56-2.58 2.56-4-.02-.33-.43-.33z"/><path d="M122.38 23.84l-4.82-.24q-3 0-5.89.24l.17.67a11.58 11.58 0 0 1-2.19 2.81q-2.19 2.44-4.38 5.32t-2.19 4.26q0 .54.39.54a5 5 0 0 0 1.77-.94q2.56-1.68 4.68-3.4l.74-.61a.74.74 0 0 1 .4-.17c.11 0 .17.07.17.2v.1a11.33 11.33 0 0 1-1.8 1.48q-1.94 1.48-4.14 3a8.22 8.22 0 0 1-2.78 1.48q-1 0-1-.87a7.43 7.43 0 0 1 1.49-3.57 38.19 38.19 0 0 1 3.13-4.26l3.23-3.79A12.08 12.08 0 0 0 111 23.9a43.16 43.16 0 0 0-5.69.81l-.67.13q-.27 0-.27.5 0 .2-.47.2a4 4 0 0 1-1.16-.22q-.69-.22-.69-.62t.67-.54q5-.87 7.07-1.06l2.78-.24q.69-.05 2.16-.08h2q1.51-.07 3.55-.07a10.09 10.09 0 0 1 2.47.17.63.63 0 0 1 .44.64c-.04.2-.3.32-.81.32z"/><path d="M119.24 32.52a.77.77 0 0 1 .44-.17c.13 0 .2.08.2.24v.07a57 57 0 0 1-5.82 4.34 8.15 8.15 0 0 1-4.21 1.45 1.33 1.33 0 0 1-1.52-1.45 6.65 6.65 0 0 1 2.22-4.5q2.22-2.31 3.74-2.31.84 0 .84.94-.17 1.85-5.32 5v.34q0 1.11 1.16 1.11a5.08 5.08 0 0 0 2.51-.77 33.25 33.25 0 0 0 4.92-3.54zm-5.83-1.31q-.74 0-1.9 1.25a6.44 6.44 0 0 0-1.51 2.82 14.64 14.64 0 0 0 2.73-2.07q1.11-1.09 1.11-1.55c-.05-.3-.17-.45-.42-.45z"/><path d="M127.39 32.52a.77.77 0 0 1 .44-.17c.13 0 .2.08.2.24v.07a57.63 57.63 0 0 1-5.32 4 7.15 7.15 0 0 1-4 1.78q-1.41 0-1.41-1.68 0-2.26 2.91-6.68a47.31 47.31 0 0 1 6.55-8q3.64-3.53 5.49-3.54.84 0 .84.74 0 1.85-4.43 6.11a73.59 73.59 0 0 1-8.7 7.26 8.91 8.91 0 0 0-1.25 3.64q0 1.25.88 1.25a4.38 4.38 0 0 0 2.29-1 32 32 0 0 0 4.65-3.37zm4-12.83q-1.41 0-5 4.07a50.75 50.75 0 0 0-6 8.15 50.07 50.07 0 0 0 7.61-6.74q3.7-4 3.7-5.17a.27.27 0 0 0-.27-.3z"/><path d="M135.54 32.52a.77.77 0 0 1 .44-.17c.13 0 .2.08.2.24v.07a57.63 57.63 0 0 1-5.32 4 7.15 7.15 0 0 1-4 1.78q-1.41 0-1.41-1.68 0-2.26 2.91-6.68a47.27 47.27 0 0 1 6.55-8q3.64-3.53 5.49-3.54.84 0 .84.74 0 1.85-4.43 6.11a73.59 73.59 0 0 1-8.7 7.26 8.91 8.91 0 0 0-1.25 3.64q0 1.25.88 1.25a4.38 4.38 0 0 0 2.29-1 31.91 31.91 0 0 0 4.65-3.37zm4-12.83q-1.41 0-5 4.07a50.69 50.69 0 0 0-6 8.15 50.07 50.07 0 0 0 7.58-6.75q3.7-4 3.7-5.17a.27.27 0 0 0-.24-.29z"/><path d="M139 34.07c-.13 0-.2-.05-.2-.15s.08-.22.24-.35q1.11-.91 1.11-1.65 0-.47-.84-.54-1.52 0-3.62 2.19t-2.1 3.23c0 .25.14.37.42.37a2.06 2.06 0 0 0 1.13-.57 21.91 21.91 0 0 0 2.39-2 1.14 1.14 0 0 1 .77-.4q.47 0 .47.44a.36.36 0 0 1-.1.27l-.37.42q-.27.32-.47.59a3 3 0 0 0-.61 1.14q0 .67.54.67a6.58 6.58 0 0 0 2.66-1.3q2-1.3 3.57-2.61l1.62-1.28a.77.77 0 0 1 .44-.17c.13 0 .2.08.2.24v.07a60.57 60.57 0 0 1-5.47 4.11q-2.88 1.92-3.79 1.92-1.08 0-1.08-1.14A1.29 1.29 0 0 1 136 37a1 1 0 0 0 .1-.34.14.14 0 0 0-.07-.13 8.61 8.61 0 0 0-1.3.91 3.66 3.66 0 0 1-2.09.91q-.89 0-.89-.94a4.72 4.72 0 0 1 1.26-2.54 12.9 12.9 0 0 1 3.44-2.87 7.86 7.86 0 0 1 4.14-1.31 1.3 1.3 0 0 1 .79.24.84.84 0 0 1 .32.72q0 .49-1 1.46a2.67 2.67 0 0 1-1.7.96z"/><path d="M143.72 38.65A.6.6 0 0 1 143 38q0-1.82 4.09-6.9a60.39 60.39 0 0 1 8.54-8.75 13.57 13.57 0 0 0 1.66-5.35 2 2 0 0 0-2.29-2.22 8.94 8.94 0 0 0-5 2.12 23.84 23.84 0 0 0-4.87 4.73q-2 2.61-2 4.09 0 1.08 1.25 1.08a6.2 6.2 0 0 0 3.94-1.8 15.45 15.45 0 0 0 3.15-3.54q.37-.61.61-.61a.21.21 0 0 1 .24.24.63.63 0 0 1-.13.4 22 22 0 0 1-3.64 3.94Q146 27.64 144 27.64t-2.05-1.51a6.66 6.66 0 0 1 1.42-3.4 24.62 24.62 0 0 1 3.45-4 22 22 0 0 1 4.58-3.33 9.64 9.64 0 0 1 4.53-1.4 2.28 2.28 0 0 1 2.59 2.56 12.56 12.56 0 0 1-1.21 4.55q3.33-2.46 5.35-2.46 1.21 0 1.21 1.28t-2.26 5a79.66 79.66 0 0 1-4.51 6.65l-2.26 3v.07a49.91 49.91 0 0 0 4.5-3.84q3.22-3 5.93-5.12t4-2.16a.68.68 0 0 1 .77.77q0 .77-2 3.47t-4 5.52q-2 2.83-2 3.91t.91 1.08a5.6 5.6 0 0 0 2.73-1.06 16.35 16.35 0 0 0 2.36-1.7q.67-.64.84-.64c.11 0 .17 0 .17.13q0 .4-1.13 1.38a14.37 14.37 0 0 1-2.83 1.85 6.63 6.63 0 0 1-2.91.88q-1.62 0-1.62-1.33a6.77 6.77 0 0 1 1.13-3.25 28.34 28.34 0 0 1 2.48-3.57q3.84-4.58 4.28-6.06c0-.25-.11-.37-.34-.37q-.81 0-5 3.64T157 33.64q-2 1.89-2.63 2.56t-1 1.08q-.37.4-.74.74-.71.64-.94.64a.1.1 0 0 1-.07 0 .48.48 0 0 1-.3-.47q0-.84 2.16-3.54a95.77 95.77 0 0 0 6.48-9q2.68-4.24 2.68-5.66 0-.54-.67-.54-1.65 0-5.19 3a56.71 56.71 0 0 1-7 10.74q-4.54 5.46-6.06 5.46zm.74-.87q.88 0 4.41-4.6a65.91 65.91 0 0 0 6-9.14 71.69 71.69 0 0 0-7.29 7.83q-3.45 4.29-3.45 5.54a.33.33 0 0 0 .33.37zm31.42-3.71c-.13 0-.2-.05-.2-.15s.08-.22.24-.35q1.11-.91 1.11-1.65 0-.47-.84-.54-1.52 0-3.62 2.19t-2.1 3.23c0 .25.14.37.42.37a2.06 2.06 0 0 0 1.11-.57 21.91 21.91 0 0 0 2.39-2 1.14 1.14 0 0 1 .77-.4q.47 0 .47.44a.36.36 0 0 1-.1.27l-.37.42q-.27.32-.47.59a3 3 0 0 0-.61 1.14q0 .67.54.67a6.58 6.58 0 0 0 2.66-1.3q2-1.3 3.57-2.61l1.62-1.28a.77.77 0 0 1 .44-.17c.13 0 .2.08.2.24v.07a60.57 60.57 0 0 1-5.47 4.11q-2.88 1.92-3.79 1.92-1.08 0-1.08-1.14a1.29 1.29 0 0 1 .1-.51 1 1 0 0 0 .1-.34.14.14 0 0 0-.07-.13 8.61 8.61 0 0 0-1.3.91 3.66 3.66 0 0 1-2.09.91q-.89 0-.89-.94a4.72 4.72 0 0 1 1.26-2.54 12.9 12.9 0 0 1 3.41-2.93 7.86 7.86 0 0 1 4.14-1.31 1.3 1.3 0 0 1 .79.24.84.84 0 0 1 .32.72q0 .49-1 1.46a2.67 2.67 0 0 1-1.66.96z"/><path d="M190 32.52a.77.77 0 0 1 .44-.17c.13 0 .2.08.2.24v.07q-2.53 2-5 3.79T182 38.21q-.84 0-.84-.91a2.76 2.76 0 0 1 .81-1.82 16.4 16.4 0 0 1 1.6-1.58q.79-.67.79-.89a.82.82 0 0 0-.25-.5 2.07 2.07 0 0 0-.42-.39q-.57.57-2.49 2.09l-.13-.5a13 13 0 0 0 2.46-2.26v-.3a2.62 2.62 0 0 1 .17-1.14 3.67 3.67 0 0 1 .81-.84 2 2 0 0 1 .88-.54.61.61 0 0 1 .42.17.47.47 0 0 1 .18.34.84.84 0 0 1-.12.39 2.68 2.68 0 0 1-.24.37c-.08.1-.18.22-.32.37a2.39 2.39 0 0 0-.25.3 1.15 1.15 0 0 0-.1.29.62.62 0 0 1-.22.34.41.41 0 0 0-.17.34 3.4 3.4 0 0 0 .27.89 3.21 3.21 0 0 1 .27 1q0 .32-1.25 1.51t-1.25 1.94q0 .4.37.4a4.31 4.31 0 0 0 1.75-.84l.4-.27q2.19-1.51 4.11-3.06z"/><path d="M196.35 32.49a.9.9 0 0 1 .42-.17c.1 0 .15.07.15.2v.1a11.26 11.26 0 0 1-1.8 1.48q-1.94 1.48-4.14 3a8.21 8.21 0 0 1-2.78 1.48q-1 0-1-.81 0-1 1.68-3.69t2.46-2.71q.57 0 .57.44a7.43 7.43 0 0 1-1.55 2.39 5.91 5.91 0 0 0-1.52 2.8c0 .32.12.47.35.47a5.36 5.36 0 0 0 1.81-.97q2.53-1.68 4.65-3.4zm-2.78-4.55a.65.65 0 0 1 .51.2.82.82 0 0 1 .18.57 1.62 1.62 0 0 1-.5.94q-.51.57-.87.57a.63.63 0 0 1-.54-.22.8.8 0 0 1-.17-.5 1.89 1.89 0 0 1 .54-.93q.53-.62.85-.62z"/><path d="M203 32.52a.91.91 0 0 1 .45-.17c.12 0 .19.08.19.24v.07a60.71 60.71 0 0 1-5.47 4.11q-2.88 1.92-3.65 1.92a2.67 2.67 0 0 1-1.3-.29c-.35-.19-.52-.41-.52-.66a1 1 0 0 1 .2-.62q.2-.25.37-.25c.11 0 .3.17.56.52s.51.52.76.52q.77 0 1.21-1.65a10.74 10.74 0 0 0 .44-2.27q0-.62-.08-.62a.21.21 0 0 0-.15.07l-1 .77-.13-.5a13 13 0 0 0 2.46-2.26q.2-.54.57-.54c.16 0 .24.06.24.17a2.57 2.57 0 0 1-.24.72 16.3 16.3 0 0 0-.62 2.51 22.09 22.09 0 0 0-.39 2.26c0 .2.06.3.17.3a45.44 45.44 0 0 0 5-3.6zM73.73 47h-.26v-3h.26v1.3h.82a.68.68 0 0 0 .36-.1.65.65 0 0 0 .24-.38l.25-.83h.22s.06 0 0 .06l-.23.8a1.86 1.86 0 0 1-.14.37.48.48 0 0 1-.25.22.57.57 0 0 1 .33.22 1.33 1.33 0 0 1 .17.36l.3 1h-.24l-.3-1a.63.63 0 0 0-.26-.38.72.72 0 0 0-.37-.1h-.89v1.51s0-.05-.01-.05zm3.76-3a.19.19 0 0 1 .21-.21h1.6a.2.2 0 0 1 .17.05.26.26 0 0 1 0 .15v2.89h-.26v-2.8h-1.47v.55q0 .58-.08 1a3.25 3.25 0 0 1-.13.68 1.17 1.17 0 0 1-.26.45 1.29 1.29 0 0 1-.47.29v-.13a1 1 0 0 0 .37-.25 1.06 1.06 0 0 0 .21-.39 2.87 2.87 0 0 0 .11-.58c0-.23 0-.5.07-.83zm5.6.24l-.13.2-.13.19-.34.49-.41.59-.42.61-.36.54a.34.34 0 0 1-.08.1.18.18 0 0 1-.1 0H81a.14.14 0 0 1-.16-.16v-2.91a.05.05 0 0 1 .06-.06h.17a.05.05 0 0 1 .06.06v2.7l.18-.26.18-.26.32-.47.38-.57.39-.58L83 44l.08-.09a.16.16 0 0 1 .11 0h.08a.13.13 0 0 1 .11 0 .19.19 0 0 1 0 .12v2.93h-.26v-2.72zM85 47h-.16s-.06 0-.06-.06v-3a.05.05 0 0 1 .06-.06h.17a.05.05 0 0 1 .06.06v1.28H87v-1.33s0-.06.07-.06h.15a.05.05 0 0 1 .06.06v3s0 .06-.07.06h-.14S87 47 87 46.92v-1.5h-1.89v1.5s-.02.08-.11.08zm5.91-2.76l-.13.2-.13.19-.34.49-.41.59-.42.61-.36.54A.34.34 0 0 1 89 47a.18.18 0 0 1-.1 0h-.07a.14.14 0 0 1-.16-.16v-2.95a.05.05 0 0 1 .06-.06h.17a.05.05 0 0 1 .06.06v2.7l.18-.26.18-.26.32-.47.38-.57.39-.58.35-.51.08-.09a.16.16 0 0 1 .11 0h.08a.13.13 0 0 1 .11 0 .19.19 0 0 1 0 .12v2.93h-.26v-2.66zM92.89 47h-.26v-3h.26v1.3h.82a.68.68 0 0 0 .36-.1.65.65 0 0 0 .24-.38l.25-.83h.22s.06 0 0 .06l-.23.8a1.86 1.86 0 0 1-.14.37.48.48 0 0 1-.25.22.57.57 0 0 1 .33.22 1.33 1.33 0 0 1 .17.36l.3 1h-.24l-.3-1a.63.63 0 0 0-.26-.38.72.72 0 0 0-.37-.1h-.89v1.51l-.01-.05zm5.55-.25a.11.11 0 0 1-.07.11 2.79 2.79 0 0 1-.56.15 3.78 3.78 0 0 1-.56 0 1.94 1.94 0 0 1-.62-.08 1 1 0 0 1-.38-.22.74.74 0 0 1-.2-.31 1.16 1.16 0 0 1-.05-.35 1.07 1.07 0 0 1 .09-.45.9.9 0 0 1 .25-.33 1.12 1.12 0 0 1 .39-.2 1.8 1.8 0 0 1 .5-.07h.92v-.23a1.42 1.42 0 0 0 0-.32.56.56 0 0 0-.13-.25.59.59 0 0 0-.26-.16 1.39 1.39 0 0 0-.44-.06 2.68 2.68 0 0 0-.42 0 2.38 2.38 0 0 0-.43.11h-.07v-.2a2.1 2.1 0 0 1 .45-.12 3.13 3.13 0 0 1 .52 0q1.11 0 1.11 1zm-.29-1.46h-1.19a.93.93 0 0 0-.31.11.75.75 0 0 0-.26.24.73.73 0 0 0-.11.42.62.62 0 0 0 .31.57.92.92 0 0 0 .31.11h1l.24-.07zm4.06 1.71h-.26v-3h.26v1.3h.79a.68.68 0 0 0 .36-.1.65.65 0 0 0 .24-.38l.25-.83h.22s.06 0 0 .06l-.23.8a1.86 1.86 0 0 1-.14.37.48.48 0 0 1-.25.22.57.57 0 0 1 .33.22 1.33 1.33 0 0 1 .17.36l.3 1h-.24l-.3-1a.63.63 0 0 0-.26-.38.72.72 0 0 0-.37-.1h-.89v1.51s.03-.05.02-.05zm5.79-1.61a1.88 1.88 0 0 1-.36 1.24 1.23 1.23 0 0 1-1 .42 1.2 1.2 0 0 1-1-.42 1.88 1.88 0 0 1-.35-1.22 1.81 1.81 0 0 1 .37-1.22 1.24 1.24 0 0 1 1-.42 1.2 1.2 0 0 1 1 .42 1.86 1.86 0 0 1 .34 1.2zm-.29 0a2.79 2.79 0 0 0 0-.52 1.25 1.25 0 0 0-.17-.45.93.93 0 0 0-.33-.31 1 1 0 0 0-.51-.12 1 1 0 0 0-.49.11.92.92 0 0 0-.32.3 1.38 1.38 0 0 0-.18.44 2.29 2.29 0 0 0-.06.52 2.76 2.76 0 0 0 .05.56 1.32 1.32 0 0 0 .18.45.9.9 0 0 0 .33.3 1 1 0 0 0 .49.11.91.91 0 0 0 .83-.45 1.43 1.43 0 0 0 .17-.45 2.42 2.42 0 0 0 .03-.47zm2.86 1.41a1.57 1.57 0 0 0 .43-.06 1.94 1.94 0 0 0 .36-.14h.08l.06.13v.07a1.7 1.7 0 0 1-.5.2 2.19 2.19 0 0 1-.49.05q-1.38 0-1.38-1.6a2.32 2.32 0 0 1 .1-.71 1.53 1.53 0 0 1 .29-.53 1.19 1.19 0 0 1 .44-.33 1.47 1.47 0 0 1 .58-.11 1.89 1.89 0 0 1 .86.21v.07l-.07.13h-.08a2.16 2.16 0 0 0-.34-.13 1.47 1.47 0 0 0-.4-.05 1.06 1.06 0 0 0-.51.12 1 1 0 0 0-.35.31 1.33 1.33 0 0 0-.2.45 2.3 2.3 0 0 0-.06.53 2.46 2.46 0 0 0 .06.54 1.2 1.2 0 0 0 .19.43.85.85 0 0 0 .35.28 1.24 1.24 0 0 0 .58.14zm3.7-.43l.27-.57.27-.55.32-.64.32-.64a.41.41 0 0 1 .07-.11.16.16 0 0 1 .11 0h.1a.14.14 0 0 1 .12 0 .19.19 0 0 1 0 .11v2.95h-.25v-2.68l-.11.23-.11.23-.89 1.83a.26.26 0 0 1-.06.09.15.15 0 0 1-.1 0h-.09a.17.17 0 0 1-.1 0 .22.22 0 0 1-.06-.09l-.44-.89-.44-.9-.23-.47v2.66h-.25V44a.21.21 0 0 1 0-.11.13.13 0 0 1 .12 0h.1a.17.17 0 0 1 .1 0 .33.33 0 0 1 .08.11q.2.41.41.82t.4.83l.35.75zm4.19-2.6a1.5 1.5 0 0 1 .59.1 1.05 1.05 0 0 1 .4.29 1.21 1.21 0 0 1 .23.44 1.94 1.94 0 0 1 .07.55.3.3 0 0 1-.08.25.35.35 0 0 1-.22.06h-2a2.08 2.08 0 0 0 .08.62 1.08 1.08 0 0 0 .23.41.86.86 0 0 0 .34.23 1.26 1.26 0 0 0 .43.07 1.61 1.61 0 0 0 .38 0 1.36 1.36 0 0 0 .33-.12l.07.14v.07a1.28 1.28 0 0 1-.41.16 2.43 2.43 0 0 1-.45 0 1.29 1.29 0 0 1-1-.39 1.79 1.79 0 0 1-.36-1.24 2.38 2.38 0 0 1 .1-.71 1.48 1.48 0 0 1 .27-.52 1.11 1.11 0 0 1 .42-.32 1.37 1.37 0 0 1 .58-.09zm1 1.44a2 2 0 0 0 0-.45 1 1 0 0 0-.17-.38.86.86 0 0 0-.32-.26 1.11 1.11 0 0 0-.49-.1.89.89 0 0 0-.73.33 1.49 1.49 0 0 0-.29.86zM122 47h-.16a.06.06 0 0 1-.07-.07v-2.85h-1s-.07 0-.07-.06v-.12a.06.06 0 0 1 .07-.07h2.4a.06.06 0 0 1 .07.07v.1s0 .06-.07.06h-1.08v2.83L122 47zm4.8-1.61a1.88 1.88 0 0 1-.36 1.24 1.23 1.23 0 0 1-1 .42 1.2 1.2 0 0 1-1-.42 1.88 1.88 0 0 1-.35-1.22 1.81 1.81 0 0 1 .37-1.22 1.24 1.24 0 0 1 1-.42 1.2 1.2 0 0 1 1 .42 1.86 1.86 0 0 1 .34 1.2zm-.29 0a2.79 2.79 0 0 0 0-.52 1.25 1.25 0 0 0-.17-.45.93.93 0 0 0-.33-.31 1 1 0 0 0-.51-.12 1 1 0 0 0-.49.11.92.92 0 0 0-.32.3 1.38 1.38 0 0 0-.18.44 2.29 2.29 0 0 0-.06.52 2.76 2.76 0 0 0 .05.56 1.32 1.32 0 0 0 .18.45.9.9 0 0 0 .33.3 1 1 0 0 0 .49.11.91.91 0 0 0 .83-.45 1.43 1.43 0 0 0 .17-.45 2.42 2.42 0 0 0 .01-.47zm2.05-1.39a.19.19 0 0 1 .21-.21h1.6a.2.2 0 0 1 .17.05.26.26 0 0 1 0 .15v2.89h-.26v-2.8h-1.48v.55q0 .58-.08 1a3.25 3.25 0 0 1-.13.68 1.17 1.17 0 0 1-.26.45 1.29 1.29 0 0 1-.47.29v-.13a1 1 0 0 0 .37-.25 1.06 1.06 0 0 0 .21-.39 2.87 2.87 0 0 0 .11-.58c0-.23 0-.5.07-.83zm5.95 1.39a1.88 1.88 0 0 1-.36 1.24 1.23 1.23 0 0 1-1 .42 1.2 1.2 0 0 1-1-.42 1.88 1.88 0 0 1-.35-1.22 1.81 1.81 0 0 1 .37-1.22 1.24 1.24 0 0 1 1-.42 1.2 1.2 0 0 1 1 .42 1.86 1.86 0 0 1 .34 1.2zm-.29 0a2.79 2.79 0 0 0 0-.52 1.25 1.25 0 0 0-.17-.45.93.93 0 0 0-.33-.31 1 1 0 0 0-.51-.12 1 1 0 0 0-.49.11.92.92 0 0 0-.32.3 1.38 1.38 0 0 0-.18.44 2.29 2.29 0 0 0-.06.52 2.76 2.76 0 0 0 .05.56 1.32 1.32 0 0 0 .18.45.9.9 0 0 0 .33.3 1 1 0 0 0 .49.11.91.91 0 0 0 .83-.45 1.43 1.43 0 0 0 .17-.45 2.42 2.42 0 0 0 .01-.47zm2-1.17a.45.45 0 0 0-.12.34v2.35a.11.11 0 0 1 0 .05h-.22s-.06 0-.06-.07V44.6a1.15 1.15 0 0 1 0-.31.59.59 0 0 1 .18-.29.61.61 0 0 1 .25-.16 1.15 1.15 0 0 1 .39-.06h1.31s.07 0 .07.07V44a.06.06 0 0 1-.07.07h-1.3a.58.58 0 0 0-.43.15zm5.02.02l-.13.2-.13.19-.34.49-.41.59-.42.61-.36.54a.34.34 0 0 1-.08.1.18.18 0 0 1-.1 0h-.07a.14.14 0 0 1-.16-.16v-2.91a.05.05 0 0 1 .06-.06h.17a.05.05 0 0 1 .06.06v2.7l.18-.26.18-.26.32-.47.38-.57.39-.58.35-.51.08-.09a.16.16 0 0 1 .11 0h.08a.13.13 0 0 1 .11 0 .19.19 0 0 1 0 .12v2.93h-.26v-2.66zm3.91 0l-.13.2-.13.19-.34.49-.41.59-.42.61-.36.54a.34.34 0 0 1-.08.1.18.18 0 0 1-.1 0h-.07a.14.14 0 0 1-.16-.16v-2.91a.05.05 0 0 1 .06-.06h.17a.05.05 0 0 1 .06.06v2.7l.18-.26.18-.26.32-.47.38-.57.39-.58.31-.45.08-.09a.16.16 0 0 1 .11 0h.08a.13.13 0 0 1 .11 0 .19.19 0 0 1 0 .12v2.93h-.26v-2.72zm6.02 0l-.13.2-.13.19-.34.49-.41.59-.42.61-.36.54a.34.34 0 0 1-.08.1.18.18 0 0 1-.1 0h-.07a.14.14 0 0 1-.16-.16v-2.91a.05.05 0 0 1 .06-.06h.17a.05.05 0 0 1 .06.06v2.7l.18-.26.18-.26.32-.47.38-.57.39-.58.35-.51.08-.09a.16.16 0 0 1 .11 0h.08a.13.13 0 0 1 .11 0 .19.19 0 0 1 0 .12v2.93h-.26v-2.66zM155 47v.85h-.18v-.95a.23.23 0 0 1 0-.12s.06-.06.14-.06h.13a1 1 0 0 0 .24-.43 4.77 4.77 0 0 0 .13-.54l.27-1.74a.25.25 0 0 1 .06-.15.27.27 0 0 1 .19-.05h1.55c.09 0 .15 0 .17.05a.27.27 0 0 1 0 .15v2.71h.14c.08 0 .13 0 .14.06a.22.22 0 0 1 0 .11l-.05.91v.06h-.16v-.91zm.61-1.26q0 .32-.11.58a1.13 1.13 0 0 1-.2.43h2V44.1h-1.46zm4.72-1.97a1.5 1.5 0 0 1 .59.1 1.05 1.05 0 0 1 .4.29 1.21 1.21 0 0 1 .23.44 1.94 1.94 0 0 1 .07.55.3.3 0 0 1-.08.25.35.35 0 0 1-.22.06h-2a2.08 2.08 0 0 0 .08.62 1.08 1.08 0 0 0 .23.41.86.86 0 0 0 .34.23 1.26 1.26 0 0 0 .43.07 1.61 1.61 0 0 0 .38 0 1.36 1.36 0 0 0 .33-.12l.07.14v.07a1.28 1.28 0 0 1-.41.16 2.43 2.43 0 0 1-.45 0 1.29 1.29 0 0 1-1-.39 1.79 1.79 0 0 1-.36-1.24 2.38 2.38 0 0 1 .1-.71 1.48 1.48 0 0 1 .27-.52 1.11 1.11 0 0 1 .42-.32 1.37 1.37 0 0 1 .58-.09zm1 1.44a2 2 0 0 0 0-.45 1 1 0 0 0-.17-.38.86.86 0 0 0-.32-.26 1.11 1.11 0 0 0-.49-.1.89.89 0 0 0-.73.33 1.49 1.49 0 0 0-.29.86zm4.1.18a2.53 2.53 0 0 1-.08.67 1.51 1.51 0 0 1-.25.53 1.19 1.19 0 0 1-.43.35 1.38 1.38 0 0 1-.61.13 3.19 3.19 0 0 1-.43 0 2.35 2.35 0 0 1-.47-.12v1.26h-.29V44a.07.07 0 0 1 0-.08 2.45 2.45 0 0 1 .59-.16 4.27 4.27 0 0 1 .59 0 1.19 1.19 0 0 1 1 .43 1.92 1.92 0 0 1 .38 1.2zm-.3 0a2.29 2.29 0 0 0-.08-.66 1.06 1.06 0 0 0-.23-.42.83.83 0 0 0-.34-.22A1.38 1.38 0 0 0 164 44a3.08 3.08 0 0 0-.43 0 2 2 0 0 0-.46.12v2.46a2.21 2.21 0 0 0 .51.13h.36a1.17 1.17 0 0 0 .45-.08.9.9 0 0 0 .35-.26A1.21 1.21 0 0 0 165 46a2.2 2.2 0 0 0 .13-.61zm3.17.98l.27-.57.27-.55.32-.64.32-.64a.41.41 0 0 1 .07-.11.16.16 0 0 1 .11 0h.1a.14.14 0 0 1 .12 0 .19.19 0 0 1 0 .11v2.95h-.25v-2.68l-.11.23-.11.23-.89 1.83a.26.26 0 0 1-.06.09.15.15 0 0 1-.1 0h-.09a.17.17 0 0 1-.1 0 .22.22 0 0 1-.06-.09l-.44-.89-.44-.9-.23-.47v2.66h-.25V44a.21.21 0 0 1 0-.11.13.13 0 0 1 .12 0h.1a.17.17 0 0 1 .1 0 .33.33 0 0 1 .08.11q.2.41.41.82t.4.83l.35.75zm5.29.38a.11.11 0 0 1-.07.11 2.79 2.79 0 0 1-.52.14 3.78 3.78 0 0 1-.56 0 1.94 1.94 0 0 1-.62-.08 1 1 0 0 1-.38-.22.74.74 0 0 1-.2-.31 1.16 1.16 0 0 1-.05-.35 1.07 1.07 0 0 1 .09-.45.9.9 0 0 1 .25-.33 1.12 1.12 0 0 1 .39-.2 1.8 1.8 0 0 1 .5-.07h.92v-.23a1.42 1.42 0 0 0 0-.32.56.56 0 0 0-.13-.25.59.59 0 0 0-.26-.16 1.39 1.39 0 0 0-.44-.06 2.68 2.68 0 0 0-.42 0 2.38 2.38 0 0 0-.43.11h-.07v-.2a2.1 2.1 0 0 1 .45-.12 3.13 3.13 0 0 1 .52 0q1.11 0 1.11 1zm-.29-1.46h-1.19a.93.93 0 0 0-.31.11.75.75 0 0 0-.26.24.73.73 0 0 0-.11.42.62.62 0 0 0 .31.57.92.92 0 0 0 .31.11h1l.24-.07zM176 47h-.16a.06.06 0 0 1-.07-.07v-2.85h-1s-.07 0-.07-.06v-.12a.06.06 0 0 1 .07-.07h2.4a.06.06 0 0 1 .07.07v.1s0 .06-.07.06H176V47zm4.78-1.61a1.88 1.88 0 0 1-.36 1.24 1.23 1.23 0 0 1-1 .42 1.2 1.2 0 0 1-1-.42 1.88 1.88 0 0 1-.35-1.22 1.81 1.81 0 0 1 .37-1.22 1.24 1.24 0 0 1 1-.42 1.2 1.2 0 0 1 1 .42 1.86 1.86 0 0 1 .34 1.2zm-.29 0a2.79 2.79 0 0 0 0-.52 1.25 1.25 0 0 0-.17-.45.93.93 0 0 0-.33-.31 1 1 0 0 0-.51-.12 1 1 0 0 0-.49.11.92.92 0 0 0-.32.3 1.38 1.38 0 0 0-.18.44 2.29 2.29 0 0 0-.06.52 2.76 2.76 0 0 0 .05.56 1.32 1.32 0 0 0 .18.45.9.9 0 0 0 .33.3 1 1 0 0 0 .49.11.91.91 0 0 0 .83-.45 1.43 1.43 0 0 0 .17-.45 2.42 2.42 0 0 0 .01-.47zm2.05-1.39a.19.19 0 0 1 .21-.21h1.6a.2.2 0 0 1 .17.05.26.26 0 0 1 0 .15v2.89h-.26v-2.8h-1.48v.55q0 .58-.08 1a3.25 3.25 0 0 1-.13.68 1.17 1.17 0 0 1-.26.45 1.29 1.29 0 0 1-.47.29v-.13a1 1 0 0 0 .37-.25 1.06 1.06 0 0 0 .21-.39 2.87 2.87 0 0 0 .11-.58c0-.23 0-.5.07-.83zm5.95 1.39a1.88 1.88 0 0 1-.36 1.24 1.23 1.23 0 0 1-1 .42 1.2 1.2 0 0 1-1-.42 1.88 1.88 0 0 1-.35-1.22 1.81 1.81 0 0 1 .37-1.22 1.24 1.24 0 0 1 1-.42 1.2 1.2 0 0 1 1 .42 1.86 1.86 0 0 1 .34 1.2zm-.29 0a2.79 2.79 0 0 0 0-.52 1.25 1.25 0 0 0-.17-.45.93.93 0 0 0-.33-.31 1 1 0 0 0-.51-.12 1 1 0 0 0-.49.11.92.92 0 0 0-.32.3 1.38 1.38 0 0 0-.18.44 2.29 2.29 0 0 0-.06.52 2.76 2.76 0 0 0 .05.56 1.32 1.32 0 0 0 .18.45.9.9 0 0 0 .33.3 1 1 0 0 0 .49.11.91.91 0 0 0 .83-.45 1.43 1.43 0 0 0 .17-.45 2.42 2.42 0 0 0 .01-.47zm2-1.17a.45.45 0 0 0-.12.34v2.35a.11.11 0 0 1 0 .05h-.22s-.06 0-.06-.07V44.6a1.15 1.15 0 0 1 0-.31.59.59 0 0 1 .2-.29.61.61 0 0 1 .25-.16 1.15 1.15 0 0 1 .39-.06h1.31s.07 0 .07.07V44a.06.06 0 0 1-.07.07h-1.3a.58.58 0 0 0-.45.15zm5.02.02l-.13.2-.13.19-.34.49-.41.59-.42.61-.36.54a.34.34 0 0 1-.08.1.18.18 0 0 1-.1 0h-.07a.14.14 0 0 1-.16-.16v-2.91a.05.05 0 0 1 .06-.06h.17a.05.05 0 0 1 .06.06v2.7l.18-.26.18-.26.32-.47.38-.57.39-.58.35-.51.08-.09a.16.16 0 0 1 .11 0h.08a.13.13 0 0 1 .11 0 .19.19 0 0 1 0 .12v2.93h-.26v-2.66zm3.91 0l-.13.2-.13.19-.34.49-.41.59-.42.61-.36.54a.34.34 0 0 1-.08.1.18.18 0 0 1-.1 0h-.07a.14.14 0 0 1-.16-.16v-2.91a.05.05 0 0 1 .06-.06h.17a.05.05 0 0 1 .06.06v2.7l.18-.26.18-.26.32-.47.38-.57.39-.58.33-.45.08-.09a.16.16 0 0 1 .11 0h.08a.13.13 0 0 1 .11 0 .19.19 0 0 1 0 .12v2.93h-.26v-2.72z"/></symbol><symbol viewBox="0 0 490.282 490.282" id="paper-plane" xmlns="http://www.w3.org/2000/svg"><path d="M.043 245.197c.6 10.1 7.3 18.6 17 21.5l179.6 54.3 6.6 123.8c.3 4.9 3.6 9.2 8.3 10.8 1.3.5 2.7.7 4 .7 3.5 0 6.8-1.4 9.2-4.1l63.5-70.3 90 62.3c4 2.8 8.7 4.3 13.6 4.3 11.3 0 21.1-8 23.5-19.2l74.7-380.7c.9-4.4-.8-9-4.2-11.8-3.5-2.9-8.2-3.6-12.4-1.9l-459 186.8c-9.3 4.2-15 13.4-14.4 23.5zm226 168.9l-4.1-78.1 46 31.8-41.9 46.3zm165.4 9.5l-163.8-113.4 229.7-222.2-65.9 335.6zm40.7-345.4l-227.1 219.7-179.4-54.2 406.5-165.5z"/></symbol><symbol viewBox="0 0 129 129" id="right-arrow" xmlns="http://www.w3.org/2000/svg"><path d="M40.4 121.3c-.8.8-1.8 1.2-2.9 1.2s-2.1-.4-2.9-1.2c-1.6-1.6-1.6-4.2 0-5.8l51-51-51-51c-1.6-1.6-1.6-4.2 0-5.8 1.6-1.6 4.2-1.6 5.8 0l53.9 53.9c1.6 1.6 1.6 4.2 0 5.8l-53.9 53.9z"/></symbol><symbol viewBox="0 0 304.36 304.36" id="vk" xmlns="http://www.w3.org/2000/svg"><path d="M261.945 175.576c10.096 9.857 20.752 19.131 29.807 29.982 4 4.822 7.787 9.798 10.684 15.394 4.105 7.955.387 16.709-6.746 17.184l-44.34-.02c-11.436.949-20.559-3.655-28.23-11.474-6.139-6.253-11.824-12.908-17.727-19.372-2.42-2.642-4.953-5.128-7.979-7.093-6.053-3.929-11.307-2.726-14.766 3.587-3.523 6.421-4.322 13.531-4.668 20.687-.475 10.441-3.631 13.186-14.119 13.664-22.414 1.057-43.686-2.334-63.447-13.641-17.422-9.968-30.932-24.04-42.691-39.971-22.895-31.021-40.428-65.108-56.186-100.15C-2.01 76.458.584 72.22 9.295 72.07c14.465-.281 28.928-.261 43.41-.02 5.879.086 9.771 3.458 12.041 9.012 7.826 19.243 17.402 37.551 29.422 54.521 3.201 4.518 6.465 9.036 11.113 12.216 5.142 3.521 9.057 2.354 11.476-3.374 1.535-3.632 2.207-7.544 2.553-11.434 1.146-13.383 1.297-26.743-.713-40.079-1.234-8.323-5.922-13.711-14.227-15.286-4.238-.803-3.607-2.38-1.555-4.799 3.564-4.172 6.916-6.769 13.598-6.769h50.111c7.889 1.557 9.641 5.101 10.721 13.039l.043 55.663c-.086 3.073 1.535 12.192 7.07 14.226 4.43 1.448 7.35-2.096 10.008-4.905 11.998-12.734 20.561-27.783 28.211-43.366 3.395-6.852 6.314-13.968 9.143-21.078 2.096-5.276 5.385-7.872 11.328-7.757l48.229.043c1.43 0 2.877.021 4.262.258 8.127 1.385 10.354 4.881 7.844 12.817-3.955 12.451-11.65 22.827-19.174 33.251-8.043 11.129-16.645 21.877-24.621 33.072-7.328 10.223-6.746 15.376 2.357 24.255zm0 0" fill-rule="evenodd" clip-rule="evenodd"/></symbol></svg>